<svg xmlns="http://www.w3.org/2000/svg" viewBox="0 0 512 512">
  <rect width="512" height="512" rx="128" fill="#43A772"/>
  <g transform="translate(256 256) scale(1.45) translate(-256 -230.1)">
    <g fill="none" stroke="#F5F0E8" stroke-width="11" stroke-linecap="round" stroke-linejoin="round">
      <path d="M256 178 C 257.4 144.6 275.6 117.3 307.4 108.2 C 348.4 96.8 374.2 121.8 374.2 153.7 C 374.2 182.5 353 196.1 332.5 188.5 C 317.3 182.8 315.8 163.1 330.9 158.6"/>
      <path d="M256 178 C 254.6 144.6 236.4 117.3 204.6 108.2 C 163.6 96.8 137.8 121.8 137.8 153.7 C 137.8 182.5 159 196.1 179.5 188.5 C 194.7 182.8 196.2 163.1 181.1 158.6"/>
      <ellipse cx="256" cy="306" rx="40" ry="46"/>
    </g>
    <g fill="#F5F0E8" stroke="none">
      <circle cx="242" cy="222" r="8"/>
      <circle cx="270" cy="222" r="8"/>
    </g>
  </g>
</svg>
