<svg width="360" height="136" viewBox="0 0 360 136" fill="none" xmlns="http://www.w3.org/2000/svg">
<g clip-path="url(#clip0_14_45)">
<g filter="url(#filter0_f_14_45)">
<rect y="3" width="360" height="124" rx="40" fill="#F1FFF0"></rect>
<rect x="0.6" y="3.6" width="358.8" height="122.8" rx="39.4" stroke="#429E71" stroke-opacity="0.4" stroke-width="1.2"></rect>
</g>
<path d="M24 54.6875C24 53.7541 24.7448 53 25.6667 53H42.3333C43.2552 53 44 53.7541 44 54.6875C44 55.6209 43.2552 56.375 42.3333 56.375H25.6667C24.7448 56.375 24 55.6209 24 54.6875ZM24 61.4375C24 60.5041 24.7448 59.75 25.6667 59.75H42.3333C43.2552 59.75 44 60.5041 44 61.4375C44 62.3709 43.2552 63.125 42.3333 63.125H35.6667V74.9375C35.6667 75.8709 34.9219 76.625 34 76.625C33.0781 76.625 32.3333 75.8709 32.3333 74.9375V63.125H25.6667C24.7448 63.125 24 62.3709 24 61.4375Z" fill="#429E71" fill-opacity="0.6"></path>
<path d="M123.673 55H120.868L119.729 59.2H113.123L111.909 55H109.091L107.877 59.2H101.271L100.132 55H97.3267L98.4661 59.2H97V62H99.2248L99.9848 64.8H97V67.6H100.744L103.022 76H105.834L108.264 67.6H112.737L115.167 76H117.979L120.258 67.6H124V64.8H121.015L121.775 62H124V59.2H122.534L123.673 55ZM102.031 62H107.066L106.256 64.8H102.79L102.031 62ZM104.467 70.9838L103.55 67.6H105.446L104.467 70.9838ZM109.074 64.8L109.884 62H111.116L111.926 64.8H109.074ZM116.533 70.9838L115.554 67.6H117.45L116.533 70.9838ZM118.21 64.8H114.744L113.934 62H118.969L118.21 64.8Z" fill="#479C6F" fill-opacity="0.6"></path>
<path d="M67 70.4875V60.1375C67 59.8542 67.1 59.6165 67.3 59.4245C67.5 59.2325 67.7333 59.1368 68 59.1375C68.0833 59.1375 68.171 59.1498 68.263 59.1745C68.355 59.1992 68.4423 59.2368 68.525 59.2875L76.675 64.4625C76.825 64.5625 76.9377 64.6875 77.013 64.8375C77.0883 64.9875 77.1257 65.1458 77.125 65.3125C77.1243 65.4792 77.087 65.6375 77.013 65.7875C76.939 65.9375 76.8263 66.0625 76.675 66.1625L68.525 71.3375C68.4417 71.3875 68.3543 71.4252 68.263 71.4505C68.1717 71.4758 68.084 71.4882 68 71.4875C67.7333 71.4875 67.5 71.3915 67.3 71.1995C67.1 71.0075 67 70.7702 67 70.4875ZM69 68.6625L74.25 65.3125L69 61.9625V68.6625Z" fill="#429E71" fill-opacity="0.6"></path>
<path d="M148.555 71.1989C147.495 71.1989 146.55 71.0166 145.722 70.652C144.898 70.2827 144.247 69.776 143.768 69.1321C143.295 68.4834 143.051 67.7353 143.037 66.8878H146.134C146.152 67.2429 146.268 67.5554 146.482 67.8253C146.699 68.0904 146.988 68.2964 147.348 68.4432C147.708 68.59 148.113 68.6634 148.562 68.6634C149.031 68.6634 149.446 68.5805 149.805 68.4148C150.165 68.2491 150.447 68.0194 150.651 67.7259C150.854 67.4323 150.956 67.0937 150.956 66.7102C150.956 66.322 150.847 65.9787 150.629 65.6804C150.416 65.3774 150.108 65.1406 149.706 64.9702C149.308 64.7997 148.835 64.7145 148.286 64.7145H146.929V62.456H148.286C148.75 62.456 149.159 62.3755 149.514 62.2145C149.874 62.0535 150.153 61.831 150.352 61.5469C150.551 61.258 150.651 60.9219 150.651 60.5384C150.651 60.1738 150.563 59.8542 150.388 59.5795C150.217 59.3002 149.976 59.0824 149.663 58.9261C149.356 58.7699 148.996 58.6918 148.584 58.6918C148.167 58.6918 147.786 58.7675 147.44 58.919C147.095 59.0658 146.818 59.2765 146.609 59.5511C146.401 59.8258 146.29 60.1477 146.276 60.517H143.328C143.342 59.679 143.581 58.9403 144.045 58.3011C144.509 57.6619 145.134 57.1624 145.92 56.8026C146.711 56.438 147.604 56.2557 148.598 56.2557C149.602 56.2557 150.48 56.438 151.233 56.8026C151.986 57.1671 152.571 57.6596 152.987 58.2798C153.409 58.8954 153.617 59.5866 153.612 60.3537C153.617 61.1681 153.364 61.8475 152.852 62.392C152.346 62.9366 151.685 63.2822 150.871 63.429V63.5426C151.941 63.6799 152.755 64.0516 153.314 64.6577C153.877 65.259 154.157 66.0118 154.152 66.9162C154.157 67.7448 153.918 68.4811 153.435 69.125C152.956 69.7689 152.296 70.2756 151.453 70.6449C150.61 71.0142 149.644 71.1989 148.555 71.1989ZM157.749 71.1847C157.281 71.1847 156.878 71.0189 156.542 70.6875C156.21 70.3513 156.045 69.9489 156.045 69.4801C156.045 69.0161 156.21 68.6184 156.542 68.2869C156.878 67.9555 157.281 67.7898 157.749 67.7898C158.204 67.7898 158.602 67.9555 158.942 68.2869C159.283 68.6184 159.454 69.0161 159.454 69.4801C159.454 69.7926 159.373 70.0791 159.212 70.3395C159.056 70.5952 158.85 70.8011 158.594 70.9574C158.339 71.1089 158.057 71.1847 157.749 71.1847ZM166.421 56.4545V71H163.346V59.3736H163.261L159.93 61.4616V58.7344L163.531 56.4545H166.421ZM175.141 56.2557C175.889 56.2557 176.609 56.3812 177.3 56.6321C177.996 56.883 178.616 57.2831 179.161 57.8324C179.71 58.3816 180.143 59.1108 180.461 60.0199C180.783 60.9242 180.946 62.0346 180.951 63.3509C180.951 64.5866 180.811 65.6899 180.532 66.6605C180.257 67.6264 179.862 68.4479 179.346 69.125C178.829 69.8021 178.207 70.3182 177.478 70.6733C176.748 71.0237 175.934 71.1989 175.034 71.1989C174.064 71.1989 173.207 71.0118 172.463 70.6378C171.72 70.259 171.121 69.7453 170.667 69.0966C170.217 68.4432 169.944 67.7093 169.85 66.8949H172.882C173.001 67.4252 173.249 67.8371 173.628 68.1307C174.007 68.4195 174.476 68.5639 175.034 68.5639C175.981 68.5639 176.701 68.152 177.194 67.3281C177.686 66.4995 177.935 65.3655 177.939 63.9261H177.84C177.622 64.3523 177.328 64.7192 176.959 65.027C176.59 65.33 176.166 65.5644 175.688 65.7301C175.214 65.8958 174.71 65.9787 174.175 65.9787C173.318 65.9787 172.553 65.7775 171.881 65.375C171.209 64.9725 170.678 64.4186 170.29 63.7131C169.902 63.0076 169.708 62.2027 169.708 61.2983C169.703 60.3229 169.928 59.4541 170.382 58.6918C170.837 57.9295 171.471 57.3329 172.286 56.902C173.105 56.4664 174.057 56.2509 175.141 56.2557ZM175.162 58.6705C174.684 58.6705 174.258 58.7841 173.884 59.0114C173.515 59.2386 173.221 59.544 173.003 59.9276C172.79 60.3111 172.686 60.7396 172.691 61.2131C172.691 61.6913 172.795 62.1222 173.003 62.5057C173.216 62.8845 173.505 63.1875 173.87 63.4148C174.239 63.6373 174.66 63.7486 175.134 63.7486C175.489 63.7486 175.818 63.6823 176.121 63.5497C176.424 63.4171 176.687 63.2348 176.909 63.0028C177.137 62.7661 177.314 62.4938 177.442 62.1861C177.57 61.8783 177.634 61.5516 177.634 61.206C177.629 60.7467 177.52 60.3253 177.307 59.9418C177.094 59.5582 176.801 59.2505 176.426 59.0185C176.052 58.7865 175.631 58.6705 175.162 58.6705Z" fill="#429E71" fill-opacity="0.8"></path>
<g clip-path="url(#clip1_14_45)">
<line x1="239.391" y1="48.3598" x2="316.391" y2="95.3598" stroke="#429E71" stroke-opacity="0.6" stroke-width="1.5"></line>
<path d="M315.436 95.5061L350 55.5" stroke="#429E71" stroke-opacity="0.6" stroke-width="1.5" stroke-linecap="round"></path>
<line x1="148.612" y1="103.358" x2="239.612" y2="48.3581" stroke="#429E71" stroke-opacity="0.6" stroke-width="1.5"></line>
<circle cx="352.5" cy="52.5" r="3" stroke="#429E71" stroke-opacity="0.6"></circle>
</g>
</g>
<defs>
<filter id="filter0_f_14_45" x="-2" y="1" width="364" height="128" filterUnits="userSpaceOnUse" color-interpolation-filters="sRGB">
<feFlood flood-opacity="0" result="BackgroundImageFix"></feFlood>
<feBlend mode="normal" in="SourceGraphic" in2="BackgroundImageFix" result="shape"></feBlend>
<feGaussianBlur stdDeviation="1" result="effect1_foregroundBlur_14_45"></feGaussianBlur>
</filter>
<clipPath id="clip0_14_45">
<rect width="360" height="136" fill="white"></rect>
</clipPath>
<clipPath id="clip1_14_45">
<rect x="204" y="43" width="156" height="57" rx="20" fill="white"></rect>
</clipPath>
</defs>
</svg>